<svg xmlns="http://www.w3.org/2000/svg" xmlns:xlink="http://www.w3.org/1999/xlink" viewBox="0 0 119.59 100.64"><defs><style>.cls-1{fill:url(#Naamloos_verloop_10);}</style><linearGradient id="Naamloos_verloop_10" x1="19.63" y1="101.09" x2="99.56" y2="21.15" gradientUnits="userSpaceOnUse"><stop offset="0" stop-color="#ff7bac"/><stop offset="0.14" stop-color="#ff84b2"/><stop offset="0.37" stop-color="#ff9dc1"/><stop offset="0.66" stop-color="#ffc6db"/><stop offset="0.99" stop-color="#fffefe"/><stop offset="1" stop-color="#fff"/></linearGradient></defs><g id="Laag_2" data-name="Laag 2"><g id="Laag_1-2" data-name="Laag 1"><path class="cls-1" d="M119.18,50.53a12.25,12.25,0,0,1-15.7,6.94l-.32-.16a23.78,23.78,0,0,1,1.17,7.37c0,8.63-4.68,16.46-12.31,22.24,3.24,1.87,9.13,6,9.29,11.22a1.39,1.39,0,0,1-2,.91s0,1.32-4.22,1.26c-3.74,0-19.24.26-22.75.33a2.41,2.41,0,0,1-1.41-.42,9.81,9.81,0,0,1-3.4-3.86,60.33,60.33,0,0,1-16.68-.23,9.63,9.63,0,0,1-3.5,4.09,2.4,2.4,0,0,1-1.4.42c-3.52-.07-19-.38-22.76-.33C19,100.37,19,99.05,19,99.05a1.39,1.39,0,0,1-2-.91c.19-5.84,7.55-10.32,10.32-11.8C20.11,80.63,15.73,73,15.73,64.68a23.85,23.85,0,0,1,1.07-7.05l-.68.35a12.72,12.72,0,0,1-9.85-.54A12.55,12.55,0,0,1,.41,51a14.54,14.54,0,0,1,1.1-9.89A14.42,14.42,0,0,1,8.43,34.6,36.4,36.4,0,0,0,13.08,32c1.78-1.15,3.61-2.44,5.46-3.86A84.28,84.28,0,0,0,30.71,16.53a34.27,34.27,0,0,1,58.69.08,82.18,82.18,0,0,0,11.66,11c1.84,1.43,3.67,2.71,5.45,3.87a34.64,34.64,0,0,0,4.66,2.57,14.19,14.19,0,0,1,8,16.44Z"/></g></g></svg>